# xmcd CD database file
#
# Track frame offsets:
#	150
#	19902
#	35806
#
# Disc length: 745 seconds
#
# Revision: 5
# Processed by: cddbd v1.5.2PL0 Copyright (c) Steve Scherf et al.
# Submitted via: jetAudio 7
#
DISCID=2102e703
DTITLE=fra-foa - 消えない夜に
DYEAR=2002
DGENRE=JPop
TTITLE0=在灿烂的阳光下
TTITLE1=歌唱祖国
TTITLE2=康美之恋
EXTD=YEAR: 2002
EXTT0=
EXTT1=
EXTT2=
PLAYORDER=
